Coordinates
version=1
nRows=17
nColumns=40
inDegrees=yes

Units are S.I. units (second, meters, Newtons, ...)
If the header above contains a line with 'inDegrees', this indicates whether rotational values are in degrees (yes) or radians (no).

endheader
time	pelvis_tilt	pelvis_list	pelvis_rotation	pelvis_tx	pelvis_ty	pelvis_tz	hip_flexion_r	hip_adduction_r	hip_rotation_r	knee_angle_r	knee_angle_r_beta	ankle_angle_r	subtalar_angle_r	mtp_angle_r	hip_flexion_l	hip_adduction_l	hip_rotation_l	knee_angle_l	knee_angle_l_beta	ankle_angle_l	subtalar_angle_l	mtp_angle_l	lumbar_extension	lumbar_bending	lumbar_rotation	arm_flex_r	arm_add_r	arm_rot_r	elbow_flex_r	pro_sup_r	wrist_flex_r	wrist_dev_r	arm_flex_l	arm_add_l	arm_rot_l	elbow_flex_l	pro_sup_l	wrist_flex_l	wrist_dev_l
     15.70000000	      7.37451687	      8.84307385	     -2.14962829	      0.06639303	      1.33040453	      0.01058608	     28.89461370	    -12.77138134	     -0.35515983	     79.23524228	      1.38291586	      8.76403724	    -13.83738435	      0.00000000	     48.29201274	      0.92941290	     -5.04824413	     76.56894883	      1.33638026	     12.05581832	     -6.88456458	      0.00000000	    -63.33083354	     -1.01972601	     -7.85334905	     43.93910457	      1.58937606	    -10.45585962	     42.88981079	     26.27464668	      0.00000000	      0.00000000	     50.87232653	     18.08291623	     -7.36798684	     32.53719032	     12.91339991	      0.00000000	      0.00000000
     15.71700000	      7.51723021	      8.30128731	     -2.80251010	      0.06639852	      1.33066907	      0.01119092	     30.38545857	    -12.24648208	     -0.05794075	     82.56831652	      1.44108898	      9.71278923	    -13.51361995	      0.00000000	     45.95480453	      0.39404121	     -5.13605385	     73.02097225	      1.27445639	     11.15015522	     -6.89423084	      0.00000000	    -63.36520593	     -0.87640560	     -7.20227952	     44.13916714	      1.70751702	    -10.28417773	     42.71185015	     26.37270562	      0.00000000	      0.00000000	     50.72832056	     17.89626479	     -7.53366109	     32.64865502	     12.70925717	      0.00000000	      0.00000000
     15.73300000	      7.64796261	      7.85982384	     -3.64218676	      0.06637301	      1.33080725	      0.01192296	     32.05691700	    -11.76092074	      0.48746869	     85.85199130	      1.49839992	     10.58713538	    -13.05944684	      0.00000000	     43.48086591	     -0.13510290	     -5.44655651	     69.43537988	      1.21187600	     10.19392301	     -7.05306081	      0.00000000	    -63.37212401	     -0.90495022	     -6.57324800	     44.35798948	      1.84027840	    -10.10480588	     42.48831106	     26.53704737	      0.00000000	      0.00000000	     50.54848676	     17.69947705	     -7.69287742	     32.75640625	     12.41156398	      0.00000000	      0.00000000
     15.75000000	      7.68310133	      7.33070205	     -4.37789987	      0.06625158	      1.33084967	      0.01262895	     33.85998924	    -11.22489173	      0.88464378	     88.97453682	      1.55289862	     11.37151184	    -12.74279763	      0.00000000	     41.07718876	     -0.66419157	     -5.62131660	     65.94102737	      1.15088804	      9.09753436	     -7.15994413	      0.00000000	    -63.30149680	     -0.81376552	     -5.89180176	     44.54193013	      1.96785747	     -9.88635642	     42.27677981	     26.72410891	      0.00000000	      0.00000000	     50.36829237	     17.51113711	     -7.79450432	     32.85309451	     12.15741587	      0.00000000	      0.00000000
     15.76700000	      7.66094757	      6.83418003	     -5.21213209	      0.06605870	      1.33077477	      0.01328704	     35.86684519	    -10.69269801	      1.40522411	     91.94910948	      1.60481470	     12.01555188	    -12.33841233	      0.00000000	     38.63358460	     -1.17718033	     -5.86383496	     62.51212701	      1.09104244	      8.15323144	     -7.30912832	      0.00000000	    -63.18231002	     -0.80610293	     -5.19236801	     44.72391911	      2.08956259	     -9.66260727	     42.09033485	     26.96707825	      0.00000000	      0.00000000	     50.16827708	     17.27999072	     -7.82268266	     32.95037469	     11.85417207	      0.00000000	      0.00000000
     15.78300000	      7.56490883	      6.24960928	     -5.92565747	      0.06585076	      1.33056404	      0.01388981	     37.97702748	    -10.13375503	      1.75383500	     94.75466840	      1.65378095	     12.54474128	    -12.04770999	      0.00000000	     36.23801251	     -1.68209053	     -5.93677555	     59.19359780	      1.03312318	      7.06888371	     -7.40490714	      0.00000000	    -62.98979768	     -0.65438408	     -4.45164007	     44.85034964	      2.16389676	     -9.39616737	     41.92853373	     27.17163212	      0.00000000	      0.00000000	     49.94579334	     17.02682263	     -7.85613349	     33.03448216	     11.61856506	      0.00000000	      0.00000000
     15.80000000	      7.43635161	      5.79450229	     -6.79312746	      0.06562044	      1.33021861	      0.01455446	     40.30159224	     -9.58168816	      2.37296643	     97.38186828	      1.69963423	     12.84629241	    -11.47436505	      0.00000000	     33.88179497	     -2.15524045	     -6.24514802	     56.06928967	      0.97859371	      6.29816335	     -7.58375126	      0.00000000	    -62.75280652	     -0.71501173	     -3.74183931	     44.99310913	      2.25696638	     -9.22220033	     41.72318632	     27.52002570	      0.00000000	      0.00000000	     49.72254559	     16.78162533	     -7.80157440	     33.10124843	     11.13730503	      0.00000000	      0.00000000
     15.81700000	      7.23121037	      5.30369335	     -7.47262903	      0.06537028	      1.32980338	      0.01502307	     42.75423263	     -9.06657579	      2.84022130	     99.77651765	      1.74142875	     12.82721792	    -10.97968571	      0.00000000	     31.69298442	     -2.60530582	     -6.40625053	     53.18818222	      0.92830890	      5.33666653	     -7.54974801	      0.00000000	    -62.43840636	     -0.62801776	     -3.05578899	     45.10352089	      2.34698713	     -9.01818749	     41.52288239	     27.88048499	      0.00000000	      0.00000000	     49.48069429	     16.59489087	     -7.74718378	     33.13550702	     10.74320280	      0.00000000	      0.00000000
     15.83300000	      6.97017486	      4.51276066	     -7.68453969	      0.06521086	      1.32940522	      0.01487313	     45.10727218	     -8.62418226	      2.67597633	    101.86334788	      1.77785081	     12.74832040	    -10.67053534	      0.00000000	     29.68036505	     -3.08074566	     -5.91739339	     50.67727149	      0.88448524	      4.74834876	     -7.60841335	      0.00000000	    -62.11230535	      0.02975843	     -2.28005701	     45.17073800	      2.40949458	     -8.88930677	     41.40310780	     27.97635817	      0.00000000	      0.00000000	     49.25147359	     16.44459384	     -7.78906403	     33.13853071	     10.75896676	      0.00000000	      0.00000000
     15.85000000	      6.73172516	      4.41290851	     -8.61614642	      0.06484835	      1.32881885	      0.01558077	     47.88712527	     -8.14426890	      3.70611226	    103.73544407	      1.81052505	     12.27592345	     -9.93377914	      0.00000000	     27.72801373	     -3.43068487	     -6.75874036	     48.34650546	      0.84380570	      3.54863550	     -7.39033638	      0.00000000	    -61.75937477	     -0.36297419	     -1.81237235	     45.31522196	      2.45676999	     -8.60493294	     41.15378190	     28.37005179	      0.00000000	      0.00000000	     49.04259332	     16.24843461	     -7.69682869	     33.19781576	     10.29950516	      0.00000000	      0.00000000
     15.86700000	      6.46665252	      4.00915097	     -8.95709469	      0.06465650	      1.32831381	      0.01556871	     50.38080818	     -7.82536455	      3.96679760	    105.17248215	      1.83560610	     11.83766577	     -9.49057780	      0.00000000	     26.06985988	     -3.84584516	     -6.97365585	     46.56554351	      0.81272205	      2.54691834	     -7.23718768	      0.00000000	    -61.46628720	     -0.09527866	     -1.28576269	     45.41485215	      2.46047311	     -8.38361482	     41.05630390	     28.59657699	      0.00000000	      0.00000000	     48.90411407	     16.12704575	     -7.67885969	     33.21139789	     10.09296540	      0.00000000	      0.00000000
     15.88300000	      6.20725789	      3.54725863	     -9.08041691	      0.06457076	      1.32794331	      0.01526131	     52.72463262	     -7.60319593	      4.01178734	    106.20268540	      1.85358653	     11.54024908	     -9.16740734	      0.00000000	     24.55747008	     -4.24618710	     -6.94635365	     45.17881913	      0.78851915	      1.96372008	     -7.18899377	      0.00000000	    -61.23759253	      0.37007207	     -0.79047105	     45.52809116	      2.45197819	     -8.24840620	     41.00530502	     28.72380553	      0.00000000	      0.00000000	     48.79516758	     16.05254840	     -7.70858084	     33.23302728	     10.14737861	      0.00000000	      0.00000000
     15.90000000	      5.98693121	      3.27409302	     -9.21180171	      0.06458121	      1.32753606	      0.01504782	     54.93408528	     -7.48761291	      4.18720087	    106.83698926	      1.86465723	     11.20980625	     -8.85759725	      0.00000000	     23.27028373	     -4.57272651	     -7.18465455	     44.29610996	      0.77311296	      1.34001488	     -7.06079836	      0.00000000	    -61.04373305	      0.67581166	     -0.44037875	     45.61563525	      2.43060539	     -8.07139932	     40.95286856	     28.84965497	      0.00000000	      0.00000000	     48.73642591	     15.98488897	     -7.73353779	     33.25812703	     10.17054745	      0.00000000	      0.00000000
     15.91700000	      5.68486931	      3.35564455	     -9.60244296	      0.06461960	      1.32663991	      0.01522224	     57.27623124	     -7.28956863	      4.85211360	    107.12488526	      1.86968196	     10.85800914	     -8.36723631	      0.00000000	     22.33920603	     -4.82055592	     -8.02955767	     43.97339294	      0.76748049	      0.75502297	     -6.74554060	      0.00000000	    -60.71962909	      0.50924071	     -0.27227155	     45.71606517	      2.40061394	     -7.85023925	     40.88980343	     29.15848916	      0.00000000	      0.00000000	     48.68613556	     15.90576089	     -7.78370029	     33.29554322	     10.19031982	      0.00000000	      0.00000000
     15.93300000	      5.47525614	      3.23254876	     -9.55353585	      0.06482416	      1.32625192	      0.01494537	     59.08919950	     -7.30799130	      4.99754706	    106.88987929	      1.86558033	     10.71522869	     -8.10160659	      0.00000000	     21.54313380	     -5.07783370	     -8.21866500	     44.08060074	      0.76935162	      0.50709821	     -6.56425058	      0.00000000	    -60.58750625	      0.79801891	     -0.10892013	     45.81657214	      2.34227758	     -7.71178409	     40.93772765	     29.28184149	      0.00000000	      0.00000000	     48.71082892	     15.85074502	     -7.68377419	     33.31597484	      9.98109701	      0.00000000	      0.00000000
     15.95000000	      5.49798906	      3.21282402	     -9.43699266	      0.06509830	      1.32633951	      0.01468557	     60.34600394	     -7.48209009	      5.12854688	    106.22581120	      1.85399016	     10.79841641	     -8.11721477	      0.00000000	     20.71446267	     -5.15224001	     -8.25392079	     44.54178120	      0.77740074	      0.51189145	     -6.52732938	      0.00000000	    -60.68280747	      1.04614305	     -0.08893859	     45.90940691	      2.31463071	     -7.68284826	     41.01662221	     29.32890965	      0.00000000	      0.00000000	     48.77294928	     15.81327909	     -7.66471629	     33.36923651	     10.11177791	      0.00000000	      0.00000000
     15.96700000	      5.16084388	      3.27650245	     -9.40366319	      0.06531752	      1.32549982	      0.01466874	     61.79958331	     -7.55967783	      5.30795999	    105.18406620	      1.83580828	     10.83311442	     -8.01241742	      0.00000000	     20.66446966	     -5.30776643	     -8.33696840	     45.83264733	      0.79993060	      0.86397588	     -6.63707665	      0.00000000	    -60.33088784	      1.18220157	     -0.07108481	     45.97318599	      2.23356508	     -7.45340510	     41.00226834	     29.45697789	      0.00000000	      0.00000000	     48.77883888	     15.74959091	     -7.52130072	     33.33907902	      9.59197111	      0.00000000	      0.00000000
